<svg width="118" height="95" viewBox="0 0 118 95" fill="none" xmlns="http://www.w3.org/2000/svg">
<path d="M79.318 25.8017C70.948 25.8017 62.458 25.4717 54.498 23.2517C46.538 21.0317 39.558 16.8817 33.128 12.0217C28.948 8.85173 25.128 6.34173 19.708 6.72173C14.3952 7.002 9.31411 8.98674 5.21798 12.3817C-1.69202 18.3817 -0.642025 29.6117 2.11797 37.4817C6.26797 49.3317 18.908 57.5617 29.688 62.9317C42.098 69.1317 55.688 72.7317 69.398 74.8017C81.398 76.6217 96.768 77.9417 107.148 70.1217C116.688 62.9317 119.308 46.5217 116.968 35.4317C116.376 32.1685 114.617 29.2323 112.018 27.1717C105.328 22.2817 95.328 25.5517 87.808 25.7117C85.008 25.7217 82.168 25.7917 79.318 25.8017Z" fill="#F2F2F2"/>
<path d="M103.008 70.2109V74.5009" stroke="#BABABA" stroke-linecap="round" stroke-linejoin="round"/>
<path d="M100.858 72.3516H105.148" stroke="#BABABA" stroke-linecap="round" stroke-linejoin="round"/>
<path d="M28.1582 11.6797V15.9797" stroke="#BABABA" stroke-linecap="round" stroke-linejoin="round"/>
<path d="M26.0181 13.8281H30.3081" stroke="#BABABA" stroke-linecap="round" stroke-linejoin="round"/>
<path d="M100.148 12.0694C100.689 12.0694 101.128 11.6306 101.128 11.0894C101.128 10.5481 100.689 10.1094 100.148 10.1094C99.6067 10.1094 99.168 10.5481 99.168 11.0894C99.168 11.6306 99.6067 12.0694 100.148 12.0694Z" fill="#CFCFCF"/>
<path d="M31.4981 43.4014C32.0393 43.4014 32.4781 42.9626 32.4781 42.4214C32.4781 41.8802 32.0393 41.4414 31.4981 41.4414C30.9568 41.4414 30.5181 41.8802 30.5181 42.4214C30.5181 42.9626 30.9568 43.4014 31.4981 43.4014Z" fill="#CFCFCF"/>
<path d="M63.0582 94.2084C83.2994 94.2084 99.7082 93.1876 99.7082 91.9284C99.7082 90.6692 83.2994 89.6484 63.0582 89.6484C42.817 89.6484 26.4082 90.6692 26.4082 91.9284C26.4082 93.1876 42.817 94.2084 63.0582 94.2084Z" fill="#F2F2F2"/>
<path d="M79.328 71.01L61.538 60.33C60.9331 59.9699 60.2421 59.7798 59.538 59.7798C58.834 59.7798 58.143 59.9699 57.538 60.33L40.158 70.93C39.5668 71.2904 38.8902 71.487 38.1978 71.4993C37.5054 71.5117 36.8223 71.3395 36.2185 71.0005C35.6147 70.6614 35.112 70.1677 34.7622 69.5701C34.4124 68.9725 34.228 68.2925 34.228 67.6V3.9C34.228 2.86565 34.6389 1.87367 35.3703 1.14228C36.1017 0.410889 37.0937 0 38.128 0H81.378C82.4116 0.00263994 83.402 0.414378 84.1328 1.1452C84.8636 1.87602 85.2754 2.86647 85.278 3.9V67.66C85.2838 68.3572 85.1026 69.0432 84.7532 69.6466C84.4038 70.25 83.8991 70.7486 83.2915 71.0907C82.684 71.4328 81.9958 71.6057 81.2988 71.5915C80.6017 71.5773 79.9211 71.3765 79.328 71.01Z" fill="#3377FF" fill-opacity="0.22"/>
<path d="M86.9181 78.7902L68.3481 67.6402C67.7115 67.2555 66.9819 67.0522 66.2381 67.0522C65.4943 67.0522 64.7647 67.2555 64.1281 67.6402L45.9881 78.7202C45.3699 79.0961 44.6628 79.3009 43.9393 79.3136C43.2159 79.3262 42.5021 79.1462 41.8711 78.7921C41.2401 78.4379 40.7147 77.9223 40.3486 77.2982C39.9826 76.674 39.7891 75.9637 39.7881 75.2402V8.73016C39.7907 7.64981 40.2218 6.61461 40.9866 5.85162C41.7515 5.08863 42.7877 4.66015 43.8681 4.66016H89.0181C90.0975 4.66016 91.1327 5.08896 91.896 5.85223C92.6593 6.6155 93.0881 7.65072 93.0881 8.73016V75.3002C93.0887 76.0213 92.8978 76.7297 92.5347 77.3527C92.1717 77.9758 91.6496 78.4913 91.0219 78.8463C90.3942 79.2014 89.6835 79.3833 88.9624 79.3734C88.2413 79.3635 87.5358 79.1622 86.9181 78.7902Z" fill="#3377FF"/>
<path d="M66.438 51.1895C76.7713 51.1895 85.148 42.8128 85.148 32.4795C85.148 22.1463 76.7713 13.7695 66.438 13.7695C56.1048 13.7695 47.728 22.1463 47.728 32.4795C47.728 42.8128 56.1048 51.1895 66.438 51.1895Z" fill="white"/>
<path d="M67.1287 24.3978L69.3797 28.8994L74.4052 29.6196C74.5336 29.6388 74.6541 29.6928 74.7531 29.7755C74.8521 29.8581 74.9258 29.9662 74.9659 30.0877C75.0059 30.2092 75.0108 30.3392 74.98 30.4632C74.9492 30.5873 74.8838 30.7004 74.7912 30.79L71.153 34.2755L72.0102 39.1951C72.0324 39.3215 72.0181 39.4515 71.9691 39.5704C71.9201 39.6893 71.8382 39.7924 71.7327 39.8679C71.6272 39.9435 71.5023 39.9886 71.3722 39.9981C71.242 40.0076 71.1117 39.9812 70.996 39.9218L66.5005 37.5681L62.0051 39.896C61.8894 39.9555 61.7591 39.9819 61.6289 39.9724C61.4987 39.9629 61.3739 39.9178 61.2684 39.8422C61.1629 39.7666 61.081 39.6636 61.032 39.5447C60.9829 39.4258 60.9687 39.2958 60.9908 39.1694L61.8546 34.2498L58.2164 30.7514C58.1213 30.6629 58.0537 30.5497 58.0214 30.4249C57.9891 30.3002 57.9934 30.169 58.0338 30.0466C58.0742 29.9241 58.149 29.8154 58.2497 29.733C58.3503 29.6507 58.4726 29.598 58.6024 29.581L63.6279 28.8608L65.8789 24.3592C65.9409 24.2473 66.0332 24.1545 66.1457 24.0911C66.2582 24.0278 66.3863 23.9963 66.5159 24.0003C66.6455 24.0043 66.7714 24.0436 66.8796 24.1138C66.9878 24.184 67.074 24.2823 67.1287 24.3978Z" fill="#3377FF"/>
</svg>
