<svg width="1440" height="453" viewBox="0 0 1440 453" fill="none" xmlns="http://www.w3.org/2000/svg">
<g opacity="0.0636858">
<mask id="mask0_77_2967" style="mask-type:luminance" maskUnits="userSpaceOnUse" x="87" y="-97" width="1353" height="897">
<path fill-rule="evenodd" clip-rule="evenodd" d="M87.1973 -96.6636H1440V799.877H87.1973V-96.6636Z" fill="white"/>
</mask>
<g mask="url(#mask0_77_2967)">
<path fill-rule="evenodd" clip-rule="evenodd" d="M1437.53 276.159C1437.96 269.764 1433.48 263.762 1425.57 260.106L664.365 -91.7045C658.231 -94.5417 650.793 -95.6246 643.426 -94.7564C636.063 -93.8853 629.648 -91.1681 625.374 -87.1003L94.67 417.266C91.6262 420.159 89.8934 423.546 89.6625 427.054C89.2428 433.449 93.7177 439.449 101.628 443.109L862.829 794.919C868.969 797.756 876.399 798.839 883.771 797.971C891.133 797.097 897.549 794.384 901.825 790.315L1432.53 285.95C1435.57 283.056 1437.3 279.668 1437.53 276.159ZM87.2269 426.984C87.4802 423.167 89.3645 419.489 92.6745 416.343L623.372 -88.0242C628.023 -92.4444 634.994 -95.3992 643.001 -96.3459C651.008 -97.2904 659.089 -96.1126 665.761 -93.0301L1426.96 258.782C1435.57 262.758 1440.43 269.28 1439.97 276.231C1439.72 280.046 1437.83 283.725 1434.52 286.874L903.822 791.238C899.174 795.659 892.206 798.612 884.199 799.558C876.194 800.506 868.11 799.325 861.435 796.242L100.238 444.431C91.6363 440.457 86.7695 433.934 87.2269 426.984Z" fill="#DADADA"/>
</g>
<path fill-rule="evenodd" clip-rule="evenodd" d="M1402.17 271.071C1402.58 264.937 1398.33 259.143 1390.81 255.572L655.435 -93.5871C649.516 -96.4007 642.296 -97.5164 635.108 -96.731C627.919 -95.9441 621.626 -93.3496 617.382 -89.4259L90.6781 397.822C87.5882 400.684 85.8318 404.044 85.602 407.542C85.1983 413.677 89.4477 419.472 96.9718 423.039L832.341 772.204C844.571 778.004 861.638 776.141 870.391 768.042L1397.1 280.791C1400.19 277.931 1401.94 274.569 1402.17 271.071ZM83.1695 407.469C83.4175 403.66 85.3318 399.998 88.6998 396.882L615.405 -90.3647C620.025 -94.64 626.882 -97.465 634.71 -98.3225C642.539 -99.1786 650.404 -97.963 656.855 -94.9004L1392.22 254.261C1400.42 258.151 1405.05 264.46 1404.61 271.141C1404.35 274.953 1402.45 278.617 1399.08 281.732L872.37 768.978C862.835 777.802 844.236 779.837 830.922 773.516L95.5517 424.353C87.3599 420.464 82.7283 414.153 83.1695 407.469Z" fill="#DADADA"/>
<path fill-rule="evenodd" clip-rule="evenodd" d="M1366.82 265.982C1367.2 260.109 1363.17 254.521 1356.04 251.038L646.505 -95.471C634.723 -101.224 618.076 -99.5544 609.394 -91.7485L86.688 378.381C83.5465 381.203 81.7643 384.543 81.5345 388.033C81.148 393.906 85.1763 399.492 92.3095 402.974L801.842 749.486C807.555 752.273 814.555 753.419 821.566 752.717C828.579 752.016 834.756 749.543 838.96 745.763L1361.67 275.631C1364.81 272.809 1366.59 269.472 1366.82 265.982ZM79.102 387.959C79.3533 384.148 81.2955 380.506 84.7246 377.425L607.434 -92.7059C616.912 -101.229 635.086 -103.052 647.949 -96.7708L1357.49 249.738C1365.28 253.543 1369.67 259.643 1369.25 266.054C1369 269.865 1367.06 273.507 1363.63 276.59L840.921 746.721C836.328 750.849 829.589 753.546 821.933 754.312C814.281 755.08 806.634 753.828 800.405 750.786L90.8658 404.275C83.0798 400.471 78.6801 394.373 79.102 387.959Z" fill="#DADADA"/>
<path fill-rule="evenodd" clip-rule="evenodd" d="M1331.47 260.893C1331.84 255.277 1328.03 249.899 1321.28 246.504L637.573 -97.3539C632.077 -100.117 625.292 -101.297 618.459 -100.677C611.632 -100.058 605.573 -97.7113 601.407 -94.0709L82.6883 358.943C79.4986 361.732 77.6895 365.042 77.4608 368.523C77.0915 374.138 80.8986 379.515 87.6474 382.91L771.36 726.769C782.694 732.466 798.918 730.998 807.523 723.487L1326.24 270.474C1329.43 267.687 1331.24 264.375 1331.47 260.893ZM75.031 368.45C75.279 364.64 77.2588 361.014 80.7513 357.966L599.466 -95.0468C604.029 -99.0304 610.657 -101.597 618.131 -102.277C625.605 -102.955 633.032 -101.663 639.046 -98.6402L1322.75 245.22C1330.14 248.934 1334.3 254.819 1333.9 260.965C1333.65 264.774 1331.68 268.401 1328.18 271.451L809.465 724.462C800.047 732.682 782.293 734.297 769.885 728.055L86.1796 384.194C78.793 380.48 74.6252 374.598 75.031 368.45Z" fill="#DADADA"/>
<path fill-rule="evenodd" clip-rule="evenodd" d="M1296.12 255.806C1296.47 250.444 1292.88 245.272 1286.51 241.969L628.643 -99.2388C623.364 -101.975 616.793 -103.188 610.141 -102.65C603.485 -102.113 597.55 -99.8916 593.419 -96.3938L78.6957 339.501C75.4501 342.247 73.6164 345.533 73.3877 349.008C73.0345 354.369 76.6279 359.541 82.9945 362.845L740.868 704.054C746.15 706.789 752.716 708.001 759.372 707.464C766.025 706.928 771.963 704.704 776.096 701.207L1290.82 265.314C1294.06 262.568 1295.89 259.279 1296.12 255.806ZM70.9536 348.936C71.207 345.123 73.2179 341.52 76.777 338.502L591.501 -97.389C596.031 -101.226 602.548 -103.663 609.844 -104.252C617.143 -104.842 624.35 -103.513 630.145 -100.509L1288.01 240.699C1295 244.321 1298.94 249.996 1298.56 255.876C1298.31 259.688 1296.29 263.296 1292.74 266.311L778.013 702.202C773.481 706.043 766.964 708.48 759.667 709.065C752.368 709.659 745.158 708.328 739.371 705.325L81.4924 364.117C74.5073 360.493 70.5682 354.818 70.9536 348.936Z" fill="#DADADA"/>
<path fill-rule="evenodd" clip-rule="evenodd" d="M1260.78 250.718C1261.12 245.61 1257.74 240.646 1251.75 237.437L619.709 -101.122C609.254 -106.722 593.875 -105.643 585.429 -98.7163L74.6959 320.063C71.4009 322.764 69.5317 326.029 69.303 329.496C68.9659 334.606 72.3457 339.568 78.3365 342.778L710.379 681.335C715.446 684.051 721.8 685.293 728.271 684.84C734.749 684.382 740.57 682.286 744.659 678.931L1255.39 260.155C1258.69 257.449 1260.56 254.185 1260.78 250.718ZM66.871 329.426C67.1201 325.611 69.174 322.023 72.8039 319.047L583.533 -99.7308C592.823 -107.35 609.738 -108.537 621.239 -102.378L1253.29 236.182C1259.87 239.709 1263.59 245.171 1263.22 250.788C1262.97 254.602 1260.92 258.191 1257.29 261.17L746.555 679.944C742.056 683.637 735.65 685.944 728.532 686.443C721.408 686.945 714.419 685.578 708.85 682.591L76.8064 344.034C70.2143 340.505 66.5006 335.043 66.871 329.426Z" fill="#DADADA"/>
<path fill-rule="evenodd" clip-rule="evenodd" d="M1225.45 245.628C1225.78 240.702 1222.69 236.062 1216.99 232.901L610.777 -103.008C605.923 -105.694 599.788 -106.97 593.489 -106.598C587.191 -106.226 581.492 -104.251 577.438 -101.037L70.7005 300.622C67.3379 303.287 65.4408 306.522 65.2143 309.983C64.8911 314.911 67.981 319.553 73.682 322.713L679.894 658.622C689.909 664.171 704.861 663.287 713.23 656.651L1219.97 254.993C1223.33 252.33 1225.23 249.092 1225.45 245.628ZM62.7838 309.911C63.0318 306.096 65.1244 302.524 68.8305 299.584L575.567 -102.073C580.041 -105.618 586.326 -107.796 593.273 -108.205C600.218 -108.616 606.989 -107.208 612.338 -104.245L1218.55 231.661C1224.84 235.148 1228.24 240.263 1227.89 245.701C1227.64 249.521 1225.54 253.09 1221.83 256.027L715.1 657.687C705.867 665.005 689.374 665.977 678.329 659.861L72.1191 323.955C65.8265 320.467 62.4231 315.349 62.7838 309.911Z" fill="#DADADA"/>
<path fill-rule="evenodd" clip-rule="evenodd" d="M1190.13 240.542C1190.44 235.863 1187.56 231.427 1182.22 228.362L601.844 -104.89C597.208 -107.556 591.284 -108.863 585.161 -108.572C579.042 -108.283 573.462 -106.432 569.442 -103.36L66.7059 281.18C63.2767 283.803 61.3463 287.014 61.1187 290.472C60.8105 295.15 63.6943 299.589 69.0249 302.652L649.403 635.907C654.043 638.569 659.967 639.875 666.088 639.586C672.203 639.299 677.784 637.447 681.802 634.375L1184.54 249.833C1187.97 247.213 1189.9 243.999 1190.13 240.542ZM58.6846 290.402C58.9358 286.576 61.0756 283.023 64.8644 280.125L567.602 -104.416C572.046 -107.815 578.22 -109.863 584.988 -110.182C591.759 -110.503 598.311 -109.057 603.438 -106.112L1183.81 227.142C1189.72 230.531 1192.9 235.44 1192.56 240.612C1192.31 244.436 1190.18 247.99 1186.39 250.893L683.642 635.429C679.203 638.831 673.027 640.877 666.26 641.199C659.491 641.516 652.937 640.073 647.813 637.126L67.4304 303.87C61.5308 300.482 58.3464 295.575 58.6846 290.402Z" fill="#DADADA"/>
<path fill-rule="evenodd" clip-rule="evenodd" d="M1154.81 235.453C1155.1 231.025 1152.42 226.788 1147.45 223.825L592.904 -106.78C588.484 -109.418 582.776 -110.754 576.834 -110.546C570.894 -110.339 565.428 -108.611 561.451 -105.68L62.7042 261.743C59.2568 264.28 57.2362 267.555 57.0118 270.96C56.723 275.388 59.405 279.627 64.3705 282.587L618.918 613.194C623.337 615.829 629.046 617.168 634.993 616.962C640.929 616.754 646.394 615.026 650.375 612.097L1149.12 244.672C1152.57 242.135 1154.59 238.858 1154.81 235.453ZM54.5781 270.891C54.8293 267.112 57.0678 263.477 60.8943 260.664L559.64 -106.759C564.052 -110.01 570.114 -111.929 576.708 -112.159C583.3 -112.39 589.631 -110.904 594.537 -107.979L1149.08 222.627C1154.59 225.911 1157.57 230.612 1157.24 235.524C1156.99 239.303 1154.75 242.933 1150.93 245.752L652.184 613.176C647.772 616.424 641.711 618.344 635.119 618.573C628.53 618.804 622.195 617.321 617.29 614.392L62.7409 283.784C57.23 280.503 54.2582 275.801 54.5781 270.891Z" fill="#DADADA"/>
<path fill-rule="evenodd" clip-rule="evenodd" d="M1119.51 230.365C1119.78 226.183 1117.3 222.146 1112.69 219.287L583.973 -108.666C579.763 -111.279 574.267 -112.648 568.507 -112.521C562.744 -112.395 557.397 -110.79 553.455 -107.999L58.7049 242.305C55.1856 244.796 53.1242 248.044 52.8998 251.45C52.626 255.633 55.1104 259.669 59.7131 262.528L588.433 590.479C597.121 595.872 610.813 595.574 618.948 589.816L1113.7 239.51C1117.22 237.018 1119.28 233.771 1119.51 230.365ZM50.466 251.38C50.7172 247.59 53.0116 243.974 56.925 241.202L551.678 -109.102C556.063 -112.207 562.008 -113.994 568.422 -114.134C574.837 -114.274 580.951 -112.752 585.637 -109.844L1114.35 218.11C1119.48 221.29 1122.24 225.781 1121.94 230.435C1121.69 234.225 1119.4 237.839 1115.48 240.615L620.724 590.919C611.673 597.328 596.437 597.659 586.769 591.658L58.0512 263.705C52.9257 260.526 50.1622 256.031 50.466 251.38Z" fill="#DADADA"/>
<path fill-rule="evenodd" clip-rule="evenodd" d="M1084.21 225.276C1084.46 221.34 1082.17 217.501 1077.92 214.75L575.037 -110.556C566.782 -115.894 553.512 -115.788 545.457 -110.319L54.6995 222.867C51.1028 225.306 48.9963 228.531 48.7741 231.935C48.5132 235.876 50.8065 239.712 55.0613 242.465L557.944 567.771C566.201 573.107 579.467 572.998 587.519 567.532L1078.28 234.348C1081.87 231.906 1083.98 228.683 1084.21 225.276ZM46.3424 231.863C46.5904 228.062 48.9427 224.464 52.957 221.738L543.717 -111.448C552.71 -117.553 567.521 -117.67 576.735 -111.709L1079.62 213.594C1084.37 216.666 1086.93 220.95 1086.64 225.348C1086.39 229.151 1084.04 232.75 1080.02 235.476L589.262 568.66C580.271 574.765 565.459 574.885 556.242 568.924L53.3628 243.617C48.612 240.546 46.0536 236.262 46.3424 231.863Z" fill="#DADADA"/>
<path fill-rule="evenodd" clip-rule="evenodd" d="M1048.92 220.189C1049.17 216.489 1047.06 212.854 1043.15 210.212L566.1 -112.444C558.283 -117.729 545.438 -117.817 537.463 -112.64L50.6993 203.426C47.02 205.817 44.8663 209.011 44.6397 212.425C44.3981 216.124 46.5046 219.759 50.4105 222.404L527.457 545.061C535.278 550.347 548.12 550.432 556.098 545.25L1042.86 229.187C1046.54 226.797 1048.7 223.6 1048.92 220.189ZM42.2067 212.354C42.459 208.533 44.8736 204.953 48.9952 202.274L535.757 -113.794C544.693 -119.593 559.082 -119.494 567.838 -113.574L1044.89 209.081C1049.27 212.041 1051.63 216.115 1051.35 220.259C1051.1 224.082 1048.69 227.661 1044.57 230.339L557.804 546.408C548.875 552.207 534.478 552.109 525.723 546.19L48.6689 223.536C44.2927 220.573 41.935 216.496 42.2067 212.354Z" fill="#DADADA"/>
<path fill-rule="evenodd" clip-rule="evenodd" d="M1013.64 215.101C1013.87 211.587 1012.01 208.237 1008.38 205.666L557.157 -114.334C553.588 -116.868 548.736 -118.33 543.508 -118.448C538.275 -118.565 533.287 -117.326 529.463 -114.959L46.6956 183.99C42.9218 186.326 40.7219 189.494 40.4965 192.912C40.2656 196.426 42.1316 199.777 45.754 202.347L496.978 522.347C504.356 527.579 516.778 527.856 524.674 522.971L1007.44 224.022C1011.22 221.687 1013.41 218.519 1013.64 215.101ZM38.0628 192.839C38.3162 188.994 40.7888 185.438 45.0264 182.813L527.8 -116.138C532.1 -118.801 537.705 -120.193 543.591 -120.06C549.471 -119.928 554.921 -118.285 558.943 -115.436L1010.16 204.565C1014.24 207.455 1016.34 211.222 1016.08 215.172C1015.82 219.016 1013.35 222.578 1009.1 225.202L526.335 524.152C517.465 529.645 503.493 529.333 495.197 523.452L43.9764 203.448C39.9052 200.557 37.8009 196.793 38.0628 192.839Z" fill="#DADADA"/>
<path fill-rule="evenodd" clip-rule="evenodd" d="M978.375 210.014C978.593 206.734 976.899 203.58 973.61 201.126L548.22 -116.225C541.277 -121.403 529.273 -121.876 521.459 -117.278L42.6828 164.555C38.8145 166.831 36.5609 169.971 36.3365 173.398C36.1218 176.676 37.8138 179.835 41.1034 182.287L466.493 499.639C473.435 504.819 485.435 505.292 493.256 500.691L972.028 218.859C975.898 216.583 978.153 213.44 978.375 210.014ZM33.9014 173.328C34.1569 169.463 36.7025 165.917 41.069 163.348L519.842 -118.486C528.659 -123.674 542.206 -123.141 550.041 -117.298L975.433 200.055C979.143 202.823 981.056 206.384 980.811 210.084C980.557 213.952 978.011 217.496 973.649 220.066L494.872 501.903C486.052 507.087 472.505 506.556 464.668 500.711L39.2814 183.362C35.5698 180.591 33.6588 177.029 33.9014 173.328Z" fill="#DADADA"/>
<path fill-rule="evenodd" clip-rule="evenodd" d="M943.128 204.928C943.329 201.881 941.804 198.917 938.841 196.582L539.281 -118.118C536.132 -120.6 531.708 -122.122 526.833 -122.4C521.953 -122.678 517.202 -121.683 513.457 -119.594L38.675 145.122C34.7616 147.302 32.391 150.497 32.1666 153.886C31.9669 156.933 33.4861 159.896 36.4515 162.233L436.01 476.934C442.515 482.057 454.103 482.719 461.835 478.408L936.617 213.696C940.531 211.514 942.905 208.317 943.128 204.928ZM29.7327 153.816C29.986 149.974 32.6744 146.356 37.1053 143.886L511.889 -120.83C516.136 -123.195 521.514 -124.325 527.041 -124.008C532.568 -123.692 537.576 -121.969 541.146 -119.157L940.703 195.544C944.063 198.19 945.786 201.547 945.561 204.997C945.309 208.838 942.62 212.458 938.186 214.931L463.402 479.644C454.643 484.528 441.516 483.777 434.148 477.972L34.5919 163.269C31.2315 160.625 29.5061 157.268 29.7327 153.816Z" fill="#DADADA"/>
<path fill-rule="evenodd" clip-rule="evenodd" d="M907.892 199.84C908.077 197.02 906.72 194.25 904.071 192.037L530.342 -120.011C527.399 -122.467 523.191 -124.019 518.488 -124.378C513.788 -124.737 509.159 -123.861 505.457 -121.914L34.6638 125.685C30.6409 127.801 28.2059 130.967 27.9804 134.374C27.7979 137.191 29.1539 139.962 31.8026 142.177L405.526 454.227C411.601 459.299 422.765 460.151 430.419 456.126L901.206 208.532C905.232 206.416 907.67 203.246 907.892 199.84ZM25.5463 134.302C25.7975 130.429 28.5718 126.828 33.153 124.419L503.938 -123.178C508.154 -125.394 513.419 -126.39 518.767 -125.981C524.115 -125.573 528.903 -123.809 532.251 -121.014L905.977 191.034C908.99 193.55 910.536 196.704 910.325 199.912C910.069 203.785 907.303 207.388 902.721 209.794L431.928 457.393C423.235 461.968 410.53 460.998 403.621 455.23L29.8934 143.183C26.8819 140.661 25.3359 137.508 25.5463 134.302Z" fill="#DADADA"/>
<path fill-rule="evenodd" clip-rule="evenodd" d="M872.674 194.756C872.845 192.159 871.646 189.579 869.299 187.49L521.402 -121.908C515.76 -126.924 505.015 -127.966 497.442 -124.23L30.6563 106.25C26.5088 108.295 24.0008 111.433 23.7764 114.857C23.6079 117.454 24.8082 120.032 27.153 122.125L375.051 431.525C380.69 436.54 391.437 437.581 399.004 433.844L865.801 203.366C869.946 201.32 872.448 198.182 872.674 194.756ZM21.3424 114.787C21.599 110.873 24.4656 107.291 29.1992 104.952L495.988 -125.524C504.634 -129.793 516.912 -128.602 523.356 -122.872L871.25 186.526C873.93 188.911 875.306 191.859 875.108 194.827C874.852 198.74 871.988 202.323 867.253 204.662L400.462 435.138C391.815 439.406 379.54 438.214 373.096 432.488L25.1999 123.089C22.5191 120.701 21.148 117.753 21.3424 114.787Z" fill="#DADADA"/>
<path fill-rule="evenodd" clip-rule="evenodd" d="M837.473 189.673C837.63 187.258 836.613 184.931 834.527 182.942L512.462 -123.806C507.253 -128.768 496.924 -129.997 489.433 -126.547L26.6344 86.8145C22.3624 88.7848 19.7814 91.8916 19.5549 95.3416C19.3981 97.7556 20.4181 100.081 22.5052 102.069L344.566 408.82C349.775 413.786 360.103 415.013 367.595 411.56L830.396 198.201C834.668 196.232 837.245 193.121 837.473 189.673ZM17.122 95.2703C17.3808 91.3145 20.3429 87.7476 25.2462 85.4883L488.04 -127.871C496.633 -131.83 508.483 -130.42 514.458 -124.728L836.523 182.021C838.917 184.302 840.089 186.971 839.904 189.742C839.645 193.7 836.686 197.266 831.789 199.527L368.983 412.888C360.394 416.847 348.542 415.436 342.568 409.744L20.5051 102.994C18.1087 100.713 16.9395 98.0439 17.122 95.2703Z" fill="#DADADA"/>
<path fill-rule="evenodd" clip-rule="evenodd" d="M802.294 184.589C802.439 182.389 801.563 180.248 799.752 178.392L503.519 -125.707C498.739 -130.612 488.826 -132.029 481.42 -128.863L22.6152 67.3773C18.2692 69.2393 15.5368 72.3967 15.3134 75.8267C15.1696 78.0246 16.05 80.1648 17.859 82.0203L314.088 386.123C318.868 391.026 328.779 392.442 336.186 389.275L794.993 193.034C799.337 191.175 802.065 188.018 802.294 184.589ZM12.8811 75.7554C13.1409 71.8018 16.2877 68.1642 21.2962 66.0234L480.1 -130.219C488.631 -133.869 500.056 -132.235 505.566 -126.581L801.796 177.517C803.881 179.655 804.894 182.125 804.727 184.659C804.469 188.61 801.323 192.25 796.311 194.389L337.508 390.632C328.976 394.28 317.551 392.649 312.043 386.996L15.8078 82.8992C13.7293 80.7583 12.7136 78.29 12.8811 75.7554Z" fill="#DADADA"/>
<path fill-rule="evenodd" clip-rule="evenodd" d="M767.133 179.503C767.265 177.518 766.518 175.558 764.98 173.841L494.582 -127.608C490.226 -132.459 480.727 -134.062 473.405 -131.18L18.5969 47.9444C14.1006 49.7143 11.278 52.8425 11.0504 56.3089C10.9194 58.2971 11.6666 60.2553 13.2073 61.9753L283.607 363.423C287.961 368.275 297.459 369.878 304.778 366.993L759.592 187.869C764.088 186.099 766.905 182.972 767.133 179.503ZM8.61856 56.2382C8.88267 52.2247 12.1454 48.6049 17.3493 46.5575L472.158 -132.567C480.637 -135.905 491.634 -134.049 496.67 -128.432L767.07 173.014C768.856 175.005 769.717 177.271 769.568 179.577C769.304 183.59 766.039 187.208 760.836 189.259L306.023 368.383C297.549 371.719 286.551 369.865 281.513 364.248L11.1126 62.7999C9.3293 60.811 8.46718 58.5396 8.61856 56.2382Z" fill="#DADADA"/>
<path fill-rule="evenodd" clip-rule="evenodd" d="M732 174.425C732.117 172.641 731.498 170.863 730.202 169.285L485.636 -129.511C481.708 -134.31 472.625 -136.097 465.382 -133.496L14.5669 28.5079C9.91162 30.1823 6.99456 33.2769 6.76373 36.7889C6.64563 38.5731 7.26512 40.3508 8.55777 41.9296L253.128 340.726C257.055 345.524 266.138 347.312 273.381 344.71L724.196 182.703C728.853 181.031 731.77 177.937 732 174.425ZM4.33096 36.7197C4.59508 32.6969 8.0715 29.0087 13.4074 27.0918L464.223 -134.915C472.644 -137.939 483.211 -135.86 487.779 -130.28L732.347 168.516C733.85 170.354 734.567 172.418 734.435 174.495C734.167 178.517 730.689 182.206 725.361 184.124L274.54 346.13C266.12 349.156 255.554 347.077 250.985 341.494L6.42025 42.6993C4.91609 40.8609 4.19354 38.7942 4.33096 36.7197Z" fill="#DADADA"/>
<mask id="mask1_77_2967" style="mask-type:luminance" maskUnits="userSpaceOnUse" x="0" y="-139" width="700" height="465">
<path fill-rule="evenodd" clip-rule="evenodd" d="M0 -138.4H699.345V325.015H0V-138.4Z" fill="white"/>
</mask>
<g mask="url(#mask1_77_2967)">
<path fill-rule="evenodd" clip-rule="evenodd" d="M696.896 169.344C697 167.759 696.493 166.164 695.429 164.728L476.694 -131.417C473.195 -136.161 464.521 -138.133 457.363 -135.813L10.5378 9.07603C5.77842 10.6191 2.68207 13.7587 2.45124 17.2686C2.3471 18.8551 2.85063 20.4517 3.91245 21.8877L222.648 318.033C226.153 322.775 234.822 324.748 241.981 322.426L688.806 177.541C693.562 175.996 696.663 172.856 696.896 169.344ZM0.015847 17.1979C0.285328 13.0959 3.90883 9.42699 9.4638 7.6264L456.289 -137.263C464.652 -139.973 474.79 -137.67 478.884 -132.127L697.623 164.018C698.86 165.696 699.451 167.561 699.33 169.415C699.059 173.518 695.439 177.188 689.875 178.989L243.052 323.875C234.686 326.59 224.553 324.286 220.459 318.743L1.7197 22.5954C0.481803 20.9211 -0.106547 19.0527 0.015847 17.1979Z" fill="#DADADA"/>
</g>
</g>
</svg>
